<?xml version="1.0" standalone="no"?>
<!DOCTYPE svg PUBLIC "-//W3C//DTD SVG 20010904//EN"
 "http://www.w3.org/TR/2001/REC-SVG-20010904/DTD/svg10.dtd">
<svg version="1.0" xmlns="http://www.w3.org/2000/svg"
 width="1600.000000pt" height="1600.000000pt" viewBox="0 0 1600.000000 1600.000000"
 preserveAspectRatio="xMidYMid meet">
<metadata>
Created by potrace 1.14, written by Peter Selinger 2001-2017
</metadata>
<g transform="translate(0.000000,1600.000000) scale(0.100000,-0.100000)"
fill="#fff" stroke="none">
<path d="M2871 15989 c-419 -44 -827 -247 -1126 -561 -264 -277 -428 -604
-492 -984 -17 -105 -18 -354 -18 -6439 0 -5150 2 -6346 13 -6415 63 -411 236
-754 527 -1045 291 -291 634 -464 1045 -527 126 -19 10235 -19 10360 0 301 47
574 157 820 330 116 81 333 297 413 409 204 286 315 583 347 923 8 82 10 1935
8 6395 -3 5869 -4 6286 -20 6370 -76 398 -231 709 -493 983 -305 320 -707 517
-1144 562 -129 13 -10115 12 -10240 -1z m10182 -1235 c90 -21 142 -43 215 -93
125 -84 226 -236 257 -386 22 -106 22 -12444 0 -12550 -24 -116 -86 -228 -174
-315 -87 -85 -166 -130 -288 -160 -77 -20 -129 -20 -5093 -18 l-5015 3 -80 31
c-96 37 -142 65 -213 129 -96 86 -167 216 -191 349 -16 84 -16 12428 0 12512
46 254 242 454 494 504 22 4 2285 8 5028 9 4578 1 4994 0 5060 -15z"/>
<path d="M3080 12305 l0 -1845 4920 0 4920 0 0 1845 0 1845 -4920 0 -4920 0 0
-1845z m5737 584 c144 -53 276 -166 340 -292 68 -135 67 -127 71 -531 l3 -369
-35 31 c-145 127 -386 234 -646 286 -188 38 -324 50 -550 50 -226 0 -362 -12
-550 -50 -260 -52 -501 -159 -646 -286 l-35 -31 3 369 c4 404 3 396 71 531 55
108 186 231 293 274 121 49 99 48 879 46 l730 -2 72 -26z"/>
<path d="M3080 8000 l0 -1850 4920 0 4920 0 0 1850 0 1850 -4920 0 -4920 0 0
-1850z m5690 597 c89 -27 191 -82 252 -137 96 -86 175 -224 198 -349 5 -29 10
-204 10 -389 l0 -334 -41 37 c-170 153 -481 269 -849 317 -128 17 -547 16
-680 0 -366 -47 -679 -163 -849 -317 l-41 -37 0 338 c0 374 6 423 59 534 91
193 271 324 481 350 36 4 367 7 735 6 590 -2 677 -4 725 -19z"/>
<path d="M3080 3695 l0 -1845 4920 0 4920 0 0 1845 0 1845 -4920 0 -4920 0 0
-1845z m5630 604 c193 -31 369 -160 454 -334 60 -120 66 -167 66 -549 l0 -339
-45 42 c-129 119 -375 227 -635 280 -190 38 -280 46 -550 46 -270 0 -360 -8
-550 -46 -260 -53 -506 -161 -635 -280 l-45 -42 0 344 c0 385 5 421 66 546 84
169 261 301 447 332 77 13 1348 13 1427 0z"/>
</g>
</svg>
