<?xml version="1.0" standalone="no"?>
<!DOCTYPE svg PUBLIC "-//W3C//DTD SVG 20010904//EN"
 "http://www.w3.org/TR/2001/REC-SVG-20010904/DTD/svg10.dtd">
<svg version="1.0" xmlns="http://www.w3.org/2000/svg"
 width="1600.000000pt" height="1600.000000pt" viewBox="0 0 1600.000000 1600.000000"
 preserveAspectRatio="xMidYMid meet">
<metadata>
Created by potrace 1.14, written by Peter Selinger 2001-2017
</metadata>
<g transform="translate(0.000000,1600.000000) scale(0.100000,-0.100000)"
fill="#fff" stroke="none">
<path d="M3330 15029 c-100 -12 -195 -33 -310 -70 -556 -181 -967 -656 -1076
-1244 -18 -97 -19 -291 -19 -5880 l0 -5780 23 -112 c132 -654 616 -1138 1272
-1274 l115 -24 4665 0 4665 0 115 24 c656 136 1140 620 1272 1274 l23 112 0
5780 c0 5589 -1 5783 -19 5880 -36 195 -109 389 -208 553 -255 423 -700 707
-1193 762 -112 12 -9216 11 -9325 -1z m9313 -644 c372 -65 662 -333 770 -714
l22 -76 3 -1517 2 -1518 -5440 0 -5440 0 0 1479 c0 1623 -2 1561 60 1734 91
251 316 476 568 567 173 63 -184 58 4803 59 4006 1 4577 -1 4652 -14z m797
-6545 l0 -2080 -5440 0 -5440 0 0 2080 0 2080 5440 0 5440 0 0 -2080z m-2
-4237 l-3 -1518 -22 -76 c-104 -365 -364 -619 -723 -706 -72 -17 -263 -18
-4690 -18 -4427 0 -4618 1 -4690 18 -359 87 -619 341 -723 706 l-22 76 -3
1518 -2 1517 5440 0 5440 0 -2 -1517z"/>
<path d="M6300 13103 c-101 -35 -172 -108 -206 -212 -14 -43 -16 -73 -10 -159
29 -482 317 -808 773 -877 145 -22 2141 -22 2286 0 430 65 711 360 767 808 18
141 10 212 -32 289 -103 188 -353 224 -503 73 -60 -59 -86 -123 -96 -235 -4
-52 -12 -109 -17 -126 -24 -80 -71 -133 -142 -161 -42 -17 -113 -18 -1080 -21
-745 -2 -1054 0 -1102 8 -143 25 -202 104 -217 293 -8 94 -13 114 -43 169 -75
136 -236 201 -378 151z"/>
<path d="M6300 7983 c-101 -35 -172 -108 -206 -212 -14 -43 -16 -73 -10 -159
29 -482 317 -808 773 -877 145 -22 2141 -22 2286 0 430 65 711 360 767 808 18
141 10 212 -32 289 -103 188 -353 224 -503 73 -60 -59 -86 -123 -96 -235 -4
-52 -12 -109 -17 -126 -24 -80 -71 -133 -142 -161 -42 -17 -113 -18 -1080 -21
-745 -2 -1054 0 -1102 8 -143 25 -202 104 -217 293 -8 94 -13 114 -43 169 -75
136 -236 201 -378 151z"/>
<path d="M6300 3503 c-101 -35 -172 -108 -206 -212 -14 -43 -16 -73 -10 -159
29 -482 317 -808 773 -877 145 -22 2141 -22 2286 0 430 65 711 360 767 808 18
141 10 212 -32 289 -103 188 -353 224 -503 73 -60 -59 -86 -123 -96 -235 -4
-52 -12 -109 -17 -126 -24 -80 -71 -133 -142 -161 -42 -17 -113 -18 -1080 -21
-745 -2 -1054 0 -1102 8 -143 25 -202 104 -217 293 -8 94 -13 114 -43 169 -75
136 -236 201 -378 151z"/>
</g>
</svg>
