<?xml version="1.0" standalone="no"?>
<!DOCTYPE svg PUBLIC "-//W3C//DTD SVG 20010904//EN"
 "http://www.w3.org/TR/2001/REC-SVG-20010904/DTD/svg10.dtd">
<svg version="1.0" xmlns="http://www.w3.org/2000/svg"
 width="200.000000pt" height="200.000000pt" viewBox="0 0 200.000000 200.000000"
 preserveAspectRatio="xMidYMid meet">
<metadata>
Created by potrace 1.14, written by Peter Selinger 2001-2017
</metadata>
<g transform="translate(0.000000,200.000000) scale(0.100000,-0.100000)"
fill="#fff" stroke="none">
<path d="M1235 1640 l-64 -60 -70 0 c-66 0 -71 -2 -129 -44 -33 -24 -63 -49
-67 -55 -3 -7 -41 -29 -83 -50 -93 -47 -202 -153 -202 -196 0 -14 -14 -55 -31
-91 -39 -79 -36 -127 10 -184 16 -21 32 -49 36 -64 17 -84 22 -74 -57 -111
-77 -35 -100 -55 -141 -120 -13 -22 -43 -53 -66 -70 -22 -16 -41 -37 -41 -47
0 -9 16 -35 35 -58 19 -23 35 -52 35 -64 0 -40 30 -56 103 -56 86 0 117 12
117 44 0 28 -25 46 -64 46 -19 0 -32 9 -46 33 -11 17 -19 37 -17 42 2 6 21 19
43 29 111 54 222 127 247 163 15 22 27 45 27 52 0 7 6 11 13 8 8 -3 11 -21 7
-63 -2 -32 -4 -77 -3 -99 1 -22 4 -86 5 -142 5 -143 5 -143 164 -143 140 0
169 7 178 45 9 34 -8 55 -43 55 -40 0 -133 28 -142 42 -5 8 8 29 36 59 27 29
46 59 49 80 3 19 10 61 16 93 5 33 10 113 10 178 0 103 3 124 22 161 l22 42 6
-50 c6 -55 24 -90 140 -265 53 -81 80 -132 89 -173 14 -55 13 -58 -7 -80 -27
-29 -29 -51 -4 -45 15 4 18 1 14 -20 -4 -21 -2 -24 15 -20 16 4 19 1 15 -18
-5 -30 10 -31 54 -3 40 25 49 58 42 167 -4 59 -17 108 -53 207 -42 117 -61
160 -120 274 -15 28 -16 46 -9 110 4 42 8 108 8 148 l-1 72 29 -24 c54 -45
151 -25 193 39 22 33 12 77 -27 122 -18 20 -28 40 -24 50 19 50 -68 113 -157
114 -44 0 -52 -4 -112 -60z m200 1 c25 -14 31 -24 33 -60 3 -33 10 -49 31 -67
52 -43 45 -95 -15 -120 -49 -21 -69 -17 -107 16 -40 35 -57 37 -81 11 -14 -15
-15 -26 -8 -59 7 -28 5 -74 -6 -150 l-16 -109 51 -104 c58 -117 117 -272 140
-365 18 -74 11 -157 -13 -147 -7 3 -14 11 -14 19 0 8 -4 14 -10 14 -5 0 -7 7
-3 15 7 19 -13 96 -38 147 -10 20 -59 97 -108 172 -85 130 -89 139 -96 207 -5
48 -12 72 -22 76 -8 3 -67 -11 -131 -31 -65 -20 -134 -36 -154 -36 -20 0 -40
-5 -43 -11 -9 -13 37 -80 84 -122 75 -68 83 -84 76 -157 -3 -36 -18 -113 -32
-172 -25 -103 -26 -108 -9 -133 21 -32 70 -54 137 -62 30 -4 48 -10 46 -17 -2
-7 -49 -12 -129 -14 -145 -3 -141 -6 -131 102 3 34 1 77 -5 98 -6 24 -7 66 0
123 10 97 7 107 -50 130 -40 17 -150 103 -187 146 -35 42 -35 112 0 159 15 20
25 47 25 68 0 49 92 142 185 189 39 20 99 59 134 87 62 49 68 51 144 57 78 7
80 8 131 57 28 27 60 54 71 60 24 14 79 6 120 -17z m-365 -587 c-16 -37 -20
-69 -20 -167 0 -176 -22 -298 -56 -311 -18 -7 -18 1 2 55 8 24 18 87 21 139 5
91 5 96 -19 125 -20 24 -26 44 -30 96 l-4 66 61 21 c33 11 61 21 62 21 1 1 -7
-20 -17 -45z m-344 -210 c51 -42 54 -61 19 -103 -25 -29 -188 -126 -231 -137
-12 -3 -32 -17 -45 -30 -20 -22 -21 -27 -10 -64 16 -53 43 -80 81 -80 17 0 30
-5 30 -10 0 -7 -25 -10 -66 -8 l-66 3 -13 39 c-8 22 -25 51 -39 65 l-26 25 48
46 c26 26 61 67 77 91 19 27 46 51 70 62 107 47 110 49 113 95 2 23 6 42 8 42
3 0 26 -16 50 -36z"/>
</g>
</svg>
